<?xml version="1.0" encoding="UTF-8" standalone="no"?>
<!-- Created with Inkscape (http://www.inkscape.org/) -->
<svg
   xmlns:dc="http://purl.org/dc/elements/1.1/"
   xmlns:cc="http://web.resource.org/cc/"
   xmlns:rdf="http://www.w3.org/1999/02/22-rdf-syntax-ns#"
   xmlns:svg="http://www.w3.org/2000/svg"
   xmlns="http://www.w3.org/2000/svg"
   xmlns:sodipodi="http://sodipodi.sourceforge.net/DTD/sodipodi-0.dtd"
   xmlns:inkscape="http://www.inkscape.org/namespaces/inkscape"
   id="svg2"
   sodipodi:version="0.32"
   inkscape:version="0.45.1"
   width="320"
   height="320"
   version="1.0"
   sodipodi:docbase="/home/rv/Desktop/dessins"
   sodipodi:docname="triangle_spherique.svg"
   inkscape:output_extension="org.inkscape.output.svg.inkscape">
  <metadata
     id="metadata7">
    <rdf:RDF>
      <cc:Work
         rdf:about="">
        <dc:format>image/svg+xml</dc:format>
        <dc:type
           rdf:resource="http://purl.org/dc/dcmitype/StillImage" />
      </cc:Work>
    </rdf:RDF>
  </metadata>
  <defs
     id="defs5" />
  <sodipodi:namedview
     inkscape:window-height="868"
     inkscape:window-width="1193"
     inkscape:pageshadow="2"
     inkscape:pageopacity="0.0"
     guidetolerance="10.0"
     gridtolerance="10.0"
     objecttolerance="10.0"
     borderopacity="1.0"
     bordercolor="#666666"
     pagecolor="#ffffff"
     id="base"
     width="320px"
     height="320px"
     inkscape:zoom="1.4650369"
     inkscape:cx="160"
     inkscape:cy="160"
     inkscape:window-x="0"
     inkscape:window-y="26"
     inkscape:current-layer="svg2" />
  <path
     sodipodi:type="arc"
     style="fill:none;fill-opacity:1;stroke:#000000;stroke-width:2.00000024;stroke-miterlimit:4;stroke-dasharray:none;stroke-opacity:1"
     id="path3134"
     sodipodi:cx="-18.769821"
     sodipodi:cy="143.29156"
     sodipodi:rx="158.85678"
     sodipodi:ry="158.85678"
     d="M 140.08696 143.29156 A 158.85678 158.85678 0 1 1  -177.6266,143.29156 A 158.85678 158.85678 0 1 1  140.08696 143.29156 z"
     transform="translate(179.10925,17.047871)" />
  <path
     style="fill:none;fill-opacity:1;stroke:#000000;stroke-width:1.63461208;stroke-miterlimit:4;stroke-dasharray:1.63461208, 4.90383625;stroke-dashoffset:4.74037504;stroke-opacity:1"
     d="M 1.4826969,158.50821 C 1.4826969,117.82256 72.445447,84.802343 159.88167,84.802343 C 247.3179,84.802343 318.28064,117.82256 318.28064,158.50821"
     id="path3136" />
  <path
     style="fill:none;fill-opacity:1;stroke:#000000;stroke-width:1.63461196;stroke-miterlimit:4;stroke-dasharray:1.63461198, 4.90383598;stroke-dashoffset:4.74037477;stroke-opacity:1"
     d="M 62.286147,284.09732 C 97.421627,300.13662 167.60554,256.02354 218.94666,185.63064 C 270.28779,115.23775 283.44022,45.089883 248.30473,29.050583"
     id="path4133" />
  <path
     style="font-size:24px;font-style:normal;font-weight:normal;fill:#000000;fill-opacity:1;stroke:none;stroke-width:1px;stroke-linecap:butt;stroke-linejoin:miter;stroke-opacity:1;font-family:Goobascript"
     d="M 151.85184,39.859127 C 154.23463,39.859145 156.0237,41.007581 157.21902,43.30444 L 156.65652,43.620846 C 156.0237,43.456798 155.08229,42.620861 153.83231,41.113034 L 151.57059,41.113034 C 149.87526,41.11305 147.7073,42.156018 145.06668,44.24194 C 142.99636,46.921638 141.96121,49.01148 141.96121,50.511471 L 141.96121,51.601315 C 143.16433,54.73413 145.04714,56.300535 147.60965,56.300534 C 149.78933,56.300535 152.05104,55.468504 154.39481,53.80444 C 154.39479,53.515381 155.05495,53.148194 156.37527,52.702877 L 156.65652,52.702877 L 156.93777,52.855221 L 157.21902,52.855221 C 157.21901,54.839599 154.30104,56.355222 148.46512,57.402096 L 147.8909,57.402096 C 143.30496,57.402096 140.57449,54.999755 139.69949,50.195065 C 139.69949,47.640387 141.48855,44.874765 145.06668,41.89819 C 147.40261,40.538832 149.66433,39.859145 151.85184,39.859127"
     id="text9094" />
  <path
     style="font-size:24px;font-style:normal;font-weight:normal;fill:#000000;fill-opacity:1;stroke:none;stroke-width:1px;stroke-linecap:butt;stroke-linejoin:miter;stroke-opacity:1;font-family:Goobascript"
     d="M 292.63139,206.44066 C 293.74076,206.44068 295.11576,207.13989 296.75639,208.53831 L 296.75639,208.70238 C 296.75638,210.0227 295.4556,211.31176 292.85405,212.56956 L 292.85405,212.89769 C 294.80716,212.8977 296.56497,213.75707 298.12749,215.47581 L 298.58452,217.093 L 298.58452,218.218 C 298.5845,220.46019 296.21732,222.343 291.48296,223.86644 L 289.1978,224.0305 C 288.48686,223.94456 286.88139,223.13597 284.38139,221.60472 C 284.38139,222.04222 284.15483,222.26097 283.70171,222.26097 C 283.00639,222.05003 282.62358,221.83129 282.55327,221.60472 L 282.55327,221.45238 L 286.44389,209.51097 L 285.76421,209.01878 L 285.76421,208.70238 C 286.67826,208.18677 287.13529,207.75708 287.1353,207.41331 L 288.04936,207.08519 L 289.42046,207.24925 C 290.90482,206.71021 291.97513,206.44068 292.63139,206.44066 M 286.90092,213.85863 L 287.1353,213.85863 C 290.4556,212.60083 293.04935,211.04223 294.91655,209.18285 L 295.15092,209.01878 L 295.15092,208.53831 L 293.3228,207.56566 L 292.85405,207.56566 C 289.80717,208.09692 288.28373,208.85083 288.28374,209.82738 L 286.90092,213.85863 M 284.83842,220.47972 C 287.00248,222.09691 288.60795,222.9055 289.65483,222.9055 L 289.87749,222.9055 C 291.54154,222.9055 293.60404,221.88207 296.06499,219.83519 C 296.67435,218.76488 296.97903,217.90551 296.97905,217.25706 C 296.67435,214.99145 295.22513,213.85864 292.63139,213.85863 L 292.17436,213.85863 C 290.79154,213.85864 288.80717,214.50707 286.22124,215.80394 C 285.29936,218.25707 284.83842,219.81566 284.83842,220.47972"
     id="text9098" />
  <path
     style="font-size:24px;font-style:normal;font-weight:normal;fill:#000000;fill-opacity:1;stroke:none;stroke-width:1px;stroke-linecap:butt;stroke-linejoin:miter;stroke-opacity:1;font-family:Goobascript"
     d="M 35.747931,210.41722 C 36.27917,210.41724 37.564325,213.24536 39.6034,218.9016 L 39.802618,218.9016 L 40.962775,218.72581 L 41.536993,219.22972 L 41.536993,219.4055 C 41.536977,219.6477 40.958853,219.87426 39.802618,220.08519 C 40.701041,223.29613 41.150259,225.78441 41.150275,227.55003 L 41.150275,227.7141 L 40.763556,228.05394 L 40.576056,228.05394 C 40.060416,228.05394 39.607292,226.24535 39.216681,222.62816 L 38.443243,220.08519 L 31.107306,220.5891 C 28.466678,224.7766 26.790898,226.87035 26.079962,226.87035 L 25.505743,226.01488 L 29.173712,220.5891 L 28.786993,219.56956 C 29.872927,219.56957 30.708863,218.66723 31.294806,216.86253 C 31.51355,216.80786 32.869017,214.65942 35.361212,210.41722 L 35.747931,210.41722 M 35.548712,212.79613 L 31.880743,218.9016 L 31.880743,219.4055 L 38.056525,219.06566 L 38.056525,218.9016 C 37.7987,217.39379 37.029169,215.35864 35.747931,212.79613 L 35.548712,212.79613"
     id="text9102" />
  <path
     style="font-size:24px;font-style:normal;font-weight:normal;fill:#000000;fill-opacity:1;stroke:none;stroke-width:1px;stroke-linecap:butt;stroke-linejoin:miter;stroke-opacity:1;font-family:Goobascript"
     d="M 154.21817,237.09975 C 155.32754,237.24038 155.88222,237.75601 155.88223,238.64662 L 155.88223,240.18178 L 155.41348,240.52162 L 154.93301,240.52162 L 154.45254,240.18178 L 154.45254,238.47084 L 153.97208,238.131 L 153.7377,238.131 C 150.87832,239.46694 149.44864,241.006 149.44864,242.74818 L 149.44864,244.29506 C 150.03457,246.46694 150.90567,247.55287 152.06192,247.55287 L 153.97208,247.55287 C 156.08144,247.55287 157.433,246.81069 158.02676,245.32631 L 158.75333,244.97475 L 158.9877,244.97475 L 159.70254,245.49037 L 159.70254,245.83021 C 159.70253,247.28334 157.95253,248.256 154.45254,248.74818 L 153.50333,248.74818 C 150.6752,248.74818 148.76504,247.43568 147.77286,244.81068 L 147.77286,243.26381 C 148.28848,239.15444 150.43692,237.09976 154.21817,237.09975"
     id="text9122" />
  <path
     style="font-size:24px;font-style:normal;font-weight:normal;fill:#000000;fill-opacity:1;stroke:none;stroke-width:1px;stroke-linecap:butt;stroke-linejoin:miter;stroke-opacity:1;font-family:Goobascript"
     d="M 67.967106,123.16548 L 68.728825,123.65767 C 68.346008,126.24362 68.006164,127.71237 67.709294,128.06392 L 67.967106,128.22798 L 66.935856,132.63423 C 68.849913,131.77486 70.646786,131.28658 72.326481,131.16939 C 75.240532,131.84908 76.697562,133.31783 76.697575,135.57564 L 76.697575,135.7397 C 76.697562,137.77877 75.326469,139.24751 72.584294,140.14595 C 71.560848,140.58345 70.619443,140.8022 69.760075,140.8022 C 67.760071,140.8022 65.619448,139.82173 63.3382,137.86079 L 65.131169,133.29048 L 66.935856,123.32954 L 67.193669,123.16548 L 67.967106,123.16548 M 65.904606,137.69673 C 66.381166,139.00142 67.322571,139.65376 68.728825,139.65376 L 69.760075,139.65376 C 73.189753,138.8647 74.904595,137.66939 74.904606,136.06782 L 74.904606,134.91939 C 74.904595,133.79439 74.217095,132.9233 72.842106,132.30611 L 72.326481,132.30611 C 70.381162,132.30611 68.412414,133.28658 66.420231,135.24751 L 65.904606,137.69673"
     id="text9126" />
  <path
     style="font-size:24px;font-style:normal;font-weight:normal;fill:#000000;fill-opacity:1;stroke:none;stroke-width:1px;stroke-linecap:butt;stroke-linejoin:miter;stroke-opacity:1;font-family:Goobascript"
     d="M 224.53635,120.55104 L 225.05197,120.55104 C 226.77071,120.69168 227.63008,120.92214 227.6301,121.24245 L 226.85666,127.26588 L 227.11447,127.78151 L 226.85666,127.78151 C 226.85665,128.94557 227.71212,130.20729 229.42306,131.56666 L 229.42306,131.74245 L 228.90744,132.25807 C 227.46993,132.25807 226.27071,130.93776 225.30978,128.29713 L 225.05197,128.29713 C 223.66134,130.07839 222.37618,131.22682 221.1965,131.74245 L 220.17697,132.08229 L 219.66135,132.08229 C 217.26291,131.6526 216.06369,130.62135 216.06369,128.98854 C 216.06369,126.44167 217.77463,123.91433 221.1965,121.40651 C 222.384,120.83621 223.49728,120.55105 224.53635,120.55104 M 217.85666,128.47291 L 217.85666,129.16432 L 218.6301,130.87526 L 218.88791,130.87526 C 221.68478,130.87526 223.91134,127.89479 225.5676,121.93385 L 225.5676,121.58229 L 225.30978,121.58229 C 222.23946,121.5823 219.75509,123.87917 217.85666,128.47291"
     id="text9134" />
  <path
     style="fill:none;fill-opacity:1;stroke:#000000;stroke-width:1.6346122;stroke-miterlimit:4;stroke-dasharray:1.63461214, 4.90383642;stroke-dashoffset:4.7403752;stroke-opacity:1"
     d="M 74.340657,26.270462 C 62.020377,37.470636 99.076457,98.32168 157.05511,162.09868 C 215.03377,225.87568 272.08798,268.54673 284.40826,257.34656"
     id="path4127" />
  <path
     style="color:#000000;fill:#04bbe8;fill-opacity:0.24332345;fill-rule:nonzero;stroke:none;stroke-width:1.63461196;stroke-linecap:butt;stroke-linejoin:miter;marker:none;marker-start:none;marker-mid:none;marker-end:none;stroke-miterlimit:4;stroke-dashoffset:0;stroke-opacity:1;visibility:visible;display:inline;overflow:visible;enable-background:accumulate"
     d="M 146.54699,67.24201 L 146.73449,67.49201 C 85.768927,180.4502 173.03485,199.07927 270.26574,211.367 L 270.39074,211.492 C 255.51517,186.58506 231.20745,154.5125 201.35949,121.6795 C 182.48874,100.92152 163.71133,82.398495 146.54699,67.24201 z M 270.26574,211.367 C 199.63459,166.36365 128.24727,131.19039 48.015747,210.992 C 76.650017,224.21147 116.05478,232.367 159.54699,232.367 C 202.61322,232.367 241.70343,224.35874 270.26574,211.367 z M 146.73449,67.49201 C 127.50025,83.832595 108.37987,104.30032 91.328247,127.6795 C 70.112117,156.76852 55.414047,185.81889 47.953247,211.02325 C 149.78341,190.963 196.03718,148.49292 146.73449,67.49201 z "
     id="path7145"
     sodipodi:nodetypes="ccccscccsccscc" />
  <path
     style="fill:none;fill-opacity:0.75;fill-rule:evenodd;stroke:#000000;stroke-width:1px;stroke-linecap:butt;stroke-linejoin:miter;stroke-opacity:1"
     d="M 134.19636,77.796068 C 140.67064,84.270344 153.61919,83.94663 158.15119,77.472353"
     id="path9088"
     sodipodi:nodetypes="cc" />
  <path
     style="fill:none;fill-opacity:0.75;fill-rule:evenodd;stroke:#000000;stroke-width:1px;stroke-linecap:butt;stroke-linejoin:miter;stroke-opacity:1"
     d="M 63.292487,217.03092 C 66.551577,208.47459 60.958927,196.79161 53.197177,195.30483"
     id="path9090"
     sodipodi:nodetypes="cc" />
  <path
     style="fill:none;fill-opacity:0.75;fill-rule:evenodd;stroke:#000000;stroke-width:1px;stroke-linecap:butt;stroke-linejoin:miter;stroke-opacity:1"
     d="M 260.17265,196.24117 C 251.66606,199.62796 246.84361,211.64934 250.99837,218.37194"
     id="path9092"
     sodipodi:nodetypes="cc" />
  <path
     style="font-size:24px;font-style:normal;font-weight:normal;fill:#000000;fill-opacity:1;stroke:none;stroke-width:1px;stroke-linecap:butt;stroke-linejoin:miter;stroke-opacity:1;font-family:FreeSans"
     d="M 76.89954,203.24016 L 76.43079,204.54094 C 76.188593,205.21281 75.696406,205.7636 74.954228,206.19328 C 74.469845,206.47453 73.797971,206.61125 72.938603,206.60344 C 71.399536,206.58781 70.149537,205.98235 69.188603,204.78703 C 68.219851,203.56829 67.735477,201.98235 67.735478,200.02922 C 67.735477,198.11517 68.219851,196.53314 69.188603,195.28313 C 70.102662,194.10345 71.524535,193.51751 73.454228,193.52531 C 74.782345,193.52533 75.782344,193.78704 76.454228,194.31047 C 77.047967,194.77142 77.458123,195.50579 77.684697,196.51359 L 77.778447,196.94719 L 78.235478,195.64641 C 78.516716,194.82611 79.059684,194.21283 79.864384,193.80656 L 81.047978,193.80656 L 81.047978,194.49797 C 80.297964,194.73236 79.790152,195.21673 79.52454,195.95109 L 78.30579,199.27922 L 79.126103,202.86516 C 79.40734,204.09172 79.696402,204.77141 79.99329,204.90422 C 80.422964,205.09953 81.126088,204.90422 82.102665,204.31828 L 82.102665,205.73625 C 80.516714,206.65031 79.165153,206.63078 78.047978,205.67766 C 77.540154,205.24016 77.215936,204.705 77.075322,204.07219 L 76.89954,203.24016 M 76.395634,200.94328 L 75.657353,197.49797 C 75.266719,195.66986 74.540157,194.75189 73.477665,194.74406 C 72.579222,194.73626 71.79016,195.21282 71.110478,196.17375 C 70.540161,196.96282 70.255005,198.2636 70.255009,200.07609 C 70.255005,201.79485 70.540161,203.09563 71.110478,203.97844 C 71.719848,204.93938 72.551878,205.38078 73.606572,205.30266 C 74.505001,205.23235 75.278438,204.24016 75.926884,202.32609 L 76.395634,200.94328"
     id="text9106" />
  <path
     style="font-size:24px;font-style:normal;font-weight:normal;fill:#000000;fill-opacity:1;stroke:none;stroke-width:1px;stroke-linecap:butt;stroke-linejoin:miter;stroke-opacity:1;font-family:FreeSans"
     d="M 237.28213,206.26674 C 237.90713,206.72768 238.79385,206.95815 239.94229,206.95814 C 241.1376,206.95815 242.079,206.6144 242.76651,205.92689 C 243.46181,205.23158 243.80947,204.28237 243.80948,203.07924 C 243.80947,201.44643 243.454,200.27846 242.74307,199.57533 C 242.0165,198.84878 240.97353,198.4855 239.61417,198.48549 L 238.50088,198.48549 L 238.50088,197.23158 L 239.08682,197.23158 C 240.079,197.23159 240.91885,196.95034 241.60635,196.38783 C 242.16884,195.91128 242.45009,195.05191 242.4501,193.80971 C 242.45009,193.27066 242.2665,192.69253 241.89932,192.07533 C 241.29775,191.05191 240.6376,190.55191 239.91885,190.57533 C 238.16104,190.63004 237.28213,192.21597 237.28213,195.33314 L 237.28213,206.26674 M 235.12588,212.77064 L 235.12588,195.33314 C 235.12588,192.05972 236.00479,190.20426 237.7626,189.76674 C 238.69229,189.53238 239.47744,189.41519 240.11807,189.41518 C 241.579,189.41519 242.77822,189.98941 243.71573,191.13783 C 244.4579,192.0441 244.829,192.88785 244.82901,193.66908 C 244.829,194.77847 244.55556,195.66128 244.0087,196.31752 C 243.46962,196.96597 242.71572,197.44644 241.74698,197.75893 C 243.16884,197.96206 244.28603,198.4894 245.09854,199.34096 C 245.88759,200.18471 246.28212,201.42299 246.28213,203.0558 C 246.28212,204.68862 245.73134,205.94252 244.62979,206.81752 C 243.53603,207.68471 241.95791,208.1183 239.89542,208.1183 C 238.62979,208.1183 237.75869,208.02846 237.28213,207.84877 L 237.28213,212.77064 L 235.12588,212.77064"
     id="text9110" />
  <path
     style="font-size:24px;font-style:normal;font-weight:normal;fill:#000000;fill-opacity:1;stroke:none;stroke-width:1px;stroke-linecap:butt;stroke-linejoin:miter;stroke-opacity:1;font-family:FreeSans"
     d="M 148.72833,101.48691 C 149.2127,103.76816 149.22832,105.33066 148.77521,106.17441 C 148.40801,106.84629 147.95489,107.19003 147.41583,107.20566 C 146.5877,107.2291 145.99395,106.83847 145.63458,106.03379 C 145.22833,105.12754 145.56817,103.78379 146.65411,102.00254 L 143.31427,90.98692 L 141.25177,90.98692 L 141.25177,89.733014 L 145.23614,89.733014 L 148.2713,99.858015 C 150.04473,97.475206 151.03691,95.463489 151.24786,93.822857 C 151.34941,93.049429 151.30254,92.400992 151.10724,91.877545 C 150.79473,91.041618 150.45098,90.557244 150.07599,90.42442 L 150.07599,89.733014 L 151.38849,89.733014 C 152.29473,90.2799 152.85723,90.783806 153.07599,91.244732 C 153.38848,91.900993 153.54472,92.436148 153.54474,92.850201 C 153.54472,93.608022 153.14238,94.736927 152.33771,96.23692 C 152.0252,96.822863 150.82207,98.572861 148.72833,101.48691"
     id="text9118" />
  <path
     style="fill:none;fill-opacity:1;stroke:#000000;stroke-width:1.63461196;stroke-miterlimit:4;stroke-opacity:1"
     d="M 248.30473,29.050583 C 213.16925,13.011287 142.98533,57.124352 91.644207,127.51725 C 40.303087,197.91014 27.150667,268.05802 62.286147,284.09732"
     id="path4131" />
  <path
     style="fill:none;fill-opacity:1;stroke:#000000;stroke-width:1.63461208;stroke-miterlimit:4;stroke-opacity:1"
     d="M 318.28064,158.50821 C 318.28064,199.19385 247.3179,232.21409 159.88167,232.21409 C 72.445447,232.21409 1.4826969,199.19385 1.4826969,158.50821"
     id="path3145" />
  <path
     style="fill:none;fill-opacity:1;stroke:#000000;stroke-width:1.6346122;stroke-miterlimit:4;stroke-opacity:1"
     d="M 284.40826,257.34656 C 296.72854,246.14639 259.67247,185.29534 201.69381,121.51834 C 143.71515,57.741348 86.660937,15.070291 74.340657,26.270462"
     id="path4125" />
</svg>
